<mxfile host="Electron" agent="Mozilla/5.0 (Windows NT 10.0; Win64; x64) AppleWebKit/537.36 (KHTML, like Gecko) draw.io/24.7.17 Chrome/128.0.6613.36 Electron/32.0.1 Safari/537.36" version="24.7.17">
  <diagram name="Page-1" id="zXr1Blo2AOEreZFay6oG">
    <mxGraphModel dx="915" dy="690" grid="1" gridSize="10" guides="1" tooltips="1" connect="1" arrows="1" fold="1" page="1" pageScale="1" pageWidth="850" pageHeight="1100" math="0" shadow="0">
      <root>
        <mxCell id="0" />
        <mxCell id="1" parent="0" />
        <mxCell id="iaDf5ZCZAtbbhq9C4Tk2-5" style="edgeStyle=orthogonalEdgeStyle;rounded=0;orthogonalLoop=1;jettySize=auto;html=1;exitX=0.5;exitY=1;exitDx=0;exitDy=0;entryX=0.5;entryY=0;entryDx=0;entryDy=0;" edge="1" parent="1" source="iaDf5ZCZAtbbhq9C4Tk2-1" target="iaDf5ZCZAtbbhq9C4Tk2-2">
          <mxGeometry relative="1" as="geometry" />
        </mxCell>
        <mxCell id="iaDf5ZCZAtbbhq9C4Tk2-1" value="Start" style="rounded=1;whiteSpace=wrap;html=1;" vertex="1" parent="1">
          <mxGeometry x="360" y="90" width="120" height="60" as="geometry" />
        </mxCell>
        <mxCell id="iaDf5ZCZAtbbhq9C4Tk2-6" style="edgeStyle=orthogonalEdgeStyle;rounded=0;orthogonalLoop=1;jettySize=auto;html=1;exitX=0.5;exitY=1;exitDx=0;exitDy=0;entryX=0.5;entryY=0;entryDx=0;entryDy=0;" edge="1" parent="1" source="iaDf5ZCZAtbbhq9C4Tk2-2" target="iaDf5ZCZAtbbhq9C4Tk2-3">
          <mxGeometry relative="1" as="geometry" />
        </mxCell>
        <mxCell id="iaDf5ZCZAtbbhq9C4Tk2-2" value="A&lt;div&gt;B&lt;/div&gt;&lt;div&gt;count = 0&lt;/div&gt;" style="rounded=0;whiteSpace=wrap;html=1;" vertex="1" parent="1">
          <mxGeometry x="360" y="230" width="120" height="60" as="geometry" />
        </mxCell>
        <mxCell id="iaDf5ZCZAtbbhq9C4Tk2-7" style="edgeStyle=orthogonalEdgeStyle;rounded=0;orthogonalLoop=1;jettySize=auto;html=1;exitX=1;exitY=0.5;exitDx=0;exitDy=0;entryX=0.5;entryY=0;entryDx=0;entryDy=0;" edge="1" parent="1" source="iaDf5ZCZAtbbhq9C4Tk2-3" target="iaDf5ZCZAtbbhq9C4Tk2-4">
          <mxGeometry relative="1" as="geometry" />
        </mxCell>
        <mxCell id="iaDf5ZCZAtbbhq9C4Tk2-13" style="edgeStyle=orthogonalEdgeStyle;rounded=0;orthogonalLoop=1;jettySize=auto;html=1;exitX=0;exitY=0.5;exitDx=0;exitDy=0;entryX=0.5;entryY=0;entryDx=0;entryDy=0;" edge="1" parent="1" source="iaDf5ZCZAtbbhq9C4Tk2-3" target="iaDf5ZCZAtbbhq9C4Tk2-10">
          <mxGeometry relative="1" as="geometry" />
        </mxCell>
        <mxCell id="iaDf5ZCZAtbbhq9C4Tk2-3" value="A &amp;lt; B" style="rhombus;whiteSpace=wrap;html=1;" vertex="1" parent="1">
          <mxGeometry x="360" y="360" width="120" height="120" as="geometry" />
        </mxCell>
        <mxCell id="iaDf5ZCZAtbbhq9C4Tk2-9" style="edgeStyle=orthogonalEdgeStyle;rounded=0;orthogonalLoop=1;jettySize=auto;html=1;exitX=0;exitY=0.5;exitDx=0;exitDy=0;entryX=0.5;entryY=1;entryDx=0;entryDy=0;" edge="1" parent="1" source="iaDf5ZCZAtbbhq9C4Tk2-4" target="iaDf5ZCZAtbbhq9C4Tk2-3">
          <mxGeometry relative="1" as="geometry" />
        </mxCell>
        <mxCell id="iaDf5ZCZAtbbhq9C4Tk2-4" value="A = A + 1&lt;div&gt;count = count + 1&lt;/div&gt;" style="rounded=0;whiteSpace=wrap;html=1;" vertex="1" parent="1">
          <mxGeometry x="520" y="510" width="120" height="60" as="geometry" />
        </mxCell>
        <mxCell id="iaDf5ZCZAtbbhq9C4Tk2-8" value="True" style="text;html=1;align=center;verticalAlign=middle;whiteSpace=wrap;rounded=0;" vertex="1" parent="1">
          <mxGeometry x="520" y="390" width="60" height="30" as="geometry" />
        </mxCell>
        <mxCell id="iaDf5ZCZAtbbhq9C4Tk2-10" value="End" style="rounded=1;whiteSpace=wrap;html=1;" vertex="1" parent="1">
          <mxGeometry x="200" y="510" width="120" height="60" as="geometry" />
        </mxCell>
        <mxCell id="iaDf5ZCZAtbbhq9C4Tk2-12" value="False" style="text;html=1;align=center;verticalAlign=middle;whiteSpace=wrap;rounded=0;" vertex="1" parent="1">
          <mxGeometry x="260" y="390" width="60" height="30" as="geometry" />
        </mxCell>
      </root>
    </mxGraphModel>
  </diagram>
</mxfile>
